<svg width="24" height="24" viewBox="0 0 24 24" fill="none" xmlns="http://www.w3.org/2000/svg">
<g clip-path="url(#clip0_57_674)">
<path d="M16.1656 0.888916C14.9809 0.97086 13.5962 1.72919 12.7893 2.71668C12.0532 3.61251 11.4476 4.94306 11.6837 6.23611C12.9782 6.27638 14.3157 5.5 15.0906 4.49584C15.8156 3.56112 16.3642 2.23891 16.1656 0.888916Z" fill="#F1FAEE"/>
<path d="M20.8477 8.34424C19.7102 6.91786 18.1116 6.09009 16.6019 6.09009C14.6088 6.09009 13.7658 7.04425 12.3811 7.04425C10.9533 7.04425 9.86857 6.09287 8.14497 6.09287C6.45193 6.09287 4.64916 7.12758 3.50611 8.89702C1.89918 11.3887 2.17417 16.0734 4.77832 20.0636C5.71026 21.4914 6.9547 23.0969 8.58247 23.1108C10.0311 23.1247 10.4394 22.1817 12.4019 22.1719C14.3644 22.1608 14.7366 23.1233 16.1824 23.108C17.8116 23.0955 19.1241 21.3164 20.056 19.8886C20.7241 18.865 20.9727 18.3497 21.4907 17.1942C17.7227 15.7595 17.1185 10.4012 20.8477 8.34424Z" fill="#F1FAEE"/>
</g>
<defs>
<clipPath id="clip0_57_674">
<rect width="22.2222" height="22.2222" fill="white" transform="translate(0.888885 0.888916)"/>
</clipPath>
</defs>
</svg>
