<svg width="24" height="24" viewBox="0 0 24 24" fill="none" xmlns="http://www.w3.org/2000/svg">
<path d="M16.3401 1.99991H7.67009C4.28009 1.99991 2.00009 4.37991 2.00009 7.91991V16.0909C2.00009 19.6199 4.28009 21.9999 7.67009 21.9999H16.3401C19.7301 21.9999 22.0001 19.6199 22.0001 16.0909V7.91991C22.0001 4.37991 19.7301 1.99991 16.3401 1.99991Z" fill="#A8DADC"/>
<path d="M16.615 10.495L11.865 15.245C11.695 15.415 11.475 15.495 11.245 15.495C11.025 15.495 10.805 15.415 10.635 15.245L8.255 12.875C7.915 12.525 7.915 11.975 8.255 11.635C8.595 11.295 9.155 11.295 9.495 11.635L11.245 13.385L15.375 9.255C15.715 8.915 16.275 8.915 16.615 9.255C16.955 9.605 16.955 10.155 16.615 10.495Z" fill="#1D3557"/>
</svg>
