<svg width="24" height="24" viewBox="0 0 24 24" fill="none" xmlns="http://www.w3.org/2000/svg">
<path d="M16.3398 1.99921H7.66979C4.27979 1.99921 1.99979 4.37921 1.99979 7.91921V16.0902C1.99979 19.6202 4.27979 21.9992 7.66979 21.9992H16.3398C19.7298 21.9992 21.9998 19.6202 21.9998 16.0902V7.91921C21.9998 4.37921 19.7298 1.99921 16.3398 1.99921Z" fill="#E63946"/>
<path d="M15.0098 13.7702C15.3498 14.1102 15.3498 14.6602 15.0098 14.9992C14.8398 15.1692 14.6198 15.2602 14.3898 15.2602C14.1698 15.2602 13.9498 15.1802 13.7798 14.9992L11.9998 13.2302L10.2198 14.9992C10.0498 15.1692 9.82979 15.2602 9.59979 15.2602C9.37979 15.2602 9.14979 15.1692 8.97979 14.9992C8.63979 14.6602 8.63979 14.1102 8.97979 13.7602L10.7598 11.9902L8.97979 10.2092C8.63979 9.8702 8.63979 9.3102 8.97979 8.9702C9.31979 8.6292 9.86979 8.6292 10.2198 8.9702L11.9998 10.7492L13.7698 8.9702C14.1198 8.6292 14.6698 8.6292 15.0098 8.9702C15.3498 9.3102 15.3498 9.8702 15.0098 10.2092L13.2298 11.9902L15.0098 13.7702Z" fill="#1D3557"/>
</svg>
