<svg width="24" height="24" viewBox="0 0 24 24" fill="none" xmlns="http://www.w3.org/2000/svg">
<g clip-path="url(#clip0_57_667)">
<path fill-rule="evenodd" clip-rule="evenodd" d="M15.4926 6.39378L19.0922 3.4469C17.1679 1.84925 14.6959 0.888916 12 0.888916C7.70573 0.888916 3.98048 3.32479 2.13126 6.89008H2.13125C1.33698 8.41999 0.888885 10.1575 0.888885 12C0.888885 13.9054 1.36814 15.6984 2.21306 17.2655L2.21304 17.2657C4.08973 20.7461 7.76859 23.1112 12 23.1112C14.633 23.1112 17.0519 22.1954 18.956 20.6649L18.9554 20.6643L18.9553 20.6642L18.9555 20.6642L18.9561 20.6648C20.914 19.091 22.3273 16.8669 22.8682 14.3199C23.0275 13.5714 23.1112 12.7955 23.1112 12C23.1112 11.2906 23.0446 10.5964 22.917 9.92431H18.2724H12.2443V14.3199H18.1857C17.6509 15.7473 16.6356 16.9396 15.3365 17.7015L15.3365 17.7017L15.3363 17.7016C14.3577 18.276 13.2173 18.6051 12 18.6051C9.16786 18.6051 6.7521 16.8224 5.81378 14.3182L5.8138 14.318C5.54275 13.5971 5.39501 12.8156 5.39492 12C5.39492 11.2485 5.5207 10.5263 5.75147 9.85347L5.7515 9.8535C6.64282 7.25945 9.10376 5.39499 12 5.39499C13.2826 5.39499 14.4798 5.7607 15.4926 6.39378Z" fill="#F1FAEE"/>
</g>
<defs>
<clipPath id="clip0_57_667">
<rect width="22.2222" height="22.2222" fill="white" transform="translate(0.888885 0.888916)"/>
</clipPath>
</defs>
</svg>
